<svg width="340" height="340" viewBox="0 0 340 340" fill="none" xmlns="http://www.w3.org/2000/svg">
<path d="M254.558 254.558C301.421 207.696 301.421 131.716 254.558 84.8528C207.696 37.9899 131.716 37.9899 84.8528 84.8528C37.9899 131.716 37.9899 207.696 84.8528 254.558C131.716 301.421 207.696 301.421 254.558 254.558Z" stroke="#FF6A00" stroke-width="32" stroke-linecap="round" stroke-dasharray="540 200"/>
<path d="M129.706 209.706L169.706 129.706L209.706 209.706" stroke="white" stroke-width="24" stroke-linecap="round" stroke-linejoin="round"/>
<path d="M169.706 176.706C178.542 176.706 185.706 169.542 185.706 160.706C185.706 151.869 178.542 144.706 169.706 144.706C160.869 144.706 153.706 151.869 153.706 160.706C153.706 169.542 160.869 176.706 169.706 176.706Z" fill="#FF6A00"/>
</svg>
